<?xml version="1.0" standalone="no"?>
<!DOCTYPE svg PUBLIC "-//W3C//DTD SVG 20010904//EN"
 "http://www.w3.org/TR/2001/REC-SVG-20010904/DTD/svg10.dtd">
<svg version="1.0" xmlns="http://www.w3.org/2000/svg"
 width="200.000000pt" height="200.000000pt" viewBox="0 0 200.000000 200.000000"
 preserveAspectRatio="xMidYMid meet">

<g transform="translate(0.000000,200.000000) scale(0.100000,-0.100000)"
fill="#000000" stroke="none">
<path d="M839 1904 c-325 -58 -593 -285 -703 -592 -120 -337 -37 -710 214
-962 359 -358 941 -358 1300 0 358 359 358 941 0 1300 -212 211 -519 307 -811
254z m425 -648 c75 -44 118 -177 99 -311 l-8 -60 -42 -6 c-23 -3 -51 -13 -62
-23 -25 -23 -37 -77 -22 -104 9 -17 7 -21 -12 -26 -46 -12 -142 -5 -182 13
-90 41 -120 108 -120 271 0 101 3 121 24 163 41 84 109 119 218 113 44 -3 75
-11 107 -30z m-504 2 c60 -31 83 -74 84 -152 0 -74 -21 -119 -70 -148 l-34
-20 41 -77 c23 -42 51 -91 61 -108 l20 -33 -74 0 -74 0 -49 100 -49 100 -38 0
-38 0 0 -100 0 -100 -70 0 -70 0 0 280 0 280 158 0 c144 0 162 -2 202 -22z
m840 -258 l0 -280 -70 0 -70 0 0 280 0 280 70 0 70 0 0 -280z m-227 -158 c28
-24 23 -86 -9 -111 -32 -25 -46 -26 -84 -6 -37 19 -48 66 -25 101 28 43 78 50
118 16z"/>
<path d="M1098 1180 c-9 -6 -24 -30 -33 -55 -23 -59 -18 -229 8 -268 32 -50
106 -48 132 3 22 42 30 164 16 232 -17 81 -70 119 -123 88z"/>
<path d="M540 1101 l0 -91 59 0 c73 0 100 19 108 76 4 33 1 45 -19 69 -21 24
-34 29 -86 33 l-62 4 0 -91z"/>
</g>
</svg>
