<svg width="2223" height="725" viewBox="0 0 2223 725" fill="none" xmlns="http://www.w3.org/2000/svg">
<path d="M1112.97 241.645C1099.51 241.396 1086.17 244.322 1074.05 250.186C1062.69 255.96 1052.91 264.426 1045.57 274.845C1037.42 286.614 1031.51 299.784 1028.13 313.696C1023.95 330.494 1021.95 347.759 1022.16 365.069C1021.66 387.263 1024.89 409.384 1031.72 430.505C1036.93 447.072 1047.26 461.554 1061.22 471.86C1076.53 481.933 1094.61 486.921 1112.91 486.116C1127.75 486.083 1142.55 484.425 1157.03 481.172C1173.31 477.401 1189.35 472.684 1205.07 467.044V531.26C1189.88 537.645 1174.06 542.423 1157.87 545.516C1140.66 548.544 1123.2 549.984 1105.73 549.819C1068.44 549.819 1037.83 542.113 1013.89 526.701C989.811 511.167 971.178 488.492 960.594 461.842C948.516 430.818 942.654 397.717 943.342 364.427C943.043 338.91 946.787 313.507 954.437 289.165C961.279 267.472 972.377 247.365 987.081 230.022C1001.6 213.252 1019.8 200.066 1040.25 191.493C1063.29 182.043 1088.02 177.41 1112.91 177.879C1131.12 177.899 1149.26 180.185 1166.91 184.686C1184.74 189.176 1202.08 195.436 1218.67 203.373L1193.98 265.726C1180.68 259.413 1167.07 253.797 1153.19 248.902C1140.28 244.247 1126.69 241.794 1112.97 241.645Z" fill="#222E5E"/>
<path d="M1326.22 159.77V238.177C1326.22 251.92 1325.75 264.956 1324.81 277.285C1323.91 289.679 1323.21 298.412 1322.76 303.55H1326.67C1332.15 294.499 1339.34 286.603 1347.83 280.303C1356.02 274.45 1365.19 270.102 1374.9 267.46C1385.34 264.604 1396.13 263.2 1406.96 263.286C1424.91 262.881 1442.72 266.479 1459.1 273.817C1473.89 280.742 1486.04 292.278 1493.74 306.696C1502.64 324.615 1506.9 344.491 1506.11 364.491V544.938H1430.5V383.242C1430.5 363.463 1426.91 348.501 1419.66 338.29C1415.77 333.141 1410.64 329.054 1404.76 326.406C1398.88 323.758 1392.42 322.633 1385.99 323.135C1373.19 322.432 1360.53 326.15 1350.14 333.667C1340.79 341.712 1334.29 352.57 1331.61 364.619C1327.71 380.955 1325.9 397.722 1326.22 414.515V544.874H1250.8V159.577L1326.22 159.77Z" fill="#222E5E"/>
<path d="M1671.45 262.451C1708.52 262.451 1736.93 270.542 1756.68 286.725C1776.44 302.907 1786.34 327.502 1786.38 360.509V544.874H1733.6L1719.17 506.986H1717.18C1710.11 516.029 1701.97 524.18 1692.94 531.26C1684.45 537.683 1674.8 542.394 1664.52 545.131C1651.76 548.329 1638.62 549.819 1625.47 549.562C1610.32 549.815 1595.32 546.608 1581.6 540.186C1568.7 533.95 1558.04 523.88 1551.07 511.353C1543.11 496.173 1539.26 479.168 1539.91 462.035C1539.91 432.624 1550.22 410.962 1570.82 397.048C1591.43 383.135 1622.32 375.429 1663.5 373.93L1711.47 372.389V360.317C1711.47 345.74 1707.69 335.144 1700.12 328.209C1691.19 320.992 1679.89 317.374 1668.44 318.062C1655.15 318.065 1641.93 319.99 1629.19 323.778C1616.05 327.698 1603.19 332.504 1590.71 338.162L1565.76 287.11C1581.39 279.252 1597.9 273.301 1614.95 269.387C1633.44 264.822 1652.41 262.493 1671.45 262.451ZM1711.47 416.57L1682.29 417.533C1657.92 418.175 1640.99 422.456 1631.5 430.376C1626.84 434.291 1623.15 439.22 1620.69 444.785C1618.23 450.35 1617.08 456.405 1617.32 462.484C1616.85 467.112 1617.53 471.784 1619.3 476.086C1621.07 480.388 1623.87 484.186 1627.46 487.143C1635.26 492.339 1644.52 494.904 1653.88 494.464C1668.82 494.886 1683.39 489.763 1694.8 480.08C1700.45 474.957 1704.89 468.628 1707.77 461.559C1710.66 454.49 1711.92 446.862 1711.47 439.238V416.57Z" fill="#222E5E"/>
<path d="M1876.49 159.77C1886.68 159.48 1896.73 162.181 1905.41 167.54C1913.49 172.763 1917.53 182.459 1917.53 196.63C1917.53 210.8 1913.49 220.497 1905.41 225.72C1896.68 230.935 1886.71 233.688 1876.55 233.688C1866.39 233.688 1856.42 230.935 1847.69 225.72C1839.69 220.326 1835.7 210.629 1835.7 196.63C1835.7 182.631 1839.69 172.934 1847.69 167.54C1856.32 162.184 1866.33 159.482 1876.49 159.77ZM1914.07 268.167V544.874H1838.71V268.167H1914.07Z" fill="#222E5E"/>
<path d="M2124.81 262.965C2154.25 262.965 2178.04 270.992 2196 287.11C2213.96 303.229 2222.94 328.979 2222.94 364.17V544.617H2147.58V383.242C2147.58 363.463 2143.99 348.501 2136.87 338.291C2132.96 333.122 2127.82 329.023 2121.91 326.374C2116 323.725 2109.52 322.611 2103.07 323.136C2080.05 323.136 2064.27 330.97 2055.87 346.703C2047.47 362.436 2043.04 385.233 2043.04 414.515V544.874H1967.88V268.167H2025.6L2035.73 303.55H2039.96C2045.56 294.284 2053.11 286.351 2062.09 280.303C2071.08 274.378 2081.01 270.035 2091.46 267.46C2102.35 264.579 2113.55 263.069 2124.81 262.965Z" fill="#222E5E"/>
<path fill-rule="evenodd" clip-rule="evenodd" d="M412.443 1.34851L41.302 85.1506C29.5785 87.8141 19.1064 94.3866 11.6023 103.79C4.09818 113.194 0.00724839 124.872 0 136.909V589.119C0.0254442 601.17 4.13897 612.856 11.6664 622.26C19.1938 631.663 29.6886 638.228 41.4303 640.877L411.546 723.716C419.148 725.417 427.031 725.417 434.634 723.716L806.224 640.813C817.982 638.196 828.497 631.64 836.03 622.229C843.563 612.818 847.664 601.115 847.654 589.054V136.909C847.659 124.869 843.572 113.185 836.066 103.779C828.56 94.3729 818.081 87.8035 806.352 85.1506L435.532 1.34851C427.929 -0.346965 420.046 -0.346965 412.443 1.34851ZM407.185 550.011H100.049V178.071H407.185V225.72H209.14V338.612H389.035V386.003H209.461V502.363H407.505L407.185 550.011ZM567.134 502.363L773.708 178.071H441.047V225.72H619.467L411.802 550.011H758.124V502.363H567.134Z" fill="#EF6825"/>
</svg>
