<?xml version="1.0" standalone="no"?>
<!DOCTYPE svg PUBLIC "-//W3C//DTD SVG 20010904//EN"
 "http://www.w3.org/TR/2001/REC-SVG-20010904/DTD/svg10.dtd">
<svg version="1.0" xmlns="http://www.w3.org/2000/svg"
 width="2230.000000pt" height="728.000000pt" viewBox="0 0 2230.000000 728.000000"
 preserveAspectRatio="xMidYMid meet">

<g transform="translate(0.000000,728.000000) scale(0.100000,-0.100000)"
fill="#000000" stroke="none">
<path d="M4190 7250 c-173 -33 -3780 -854 -3822 -870 -126 -48 -248 -176 -300
-315 l-23 -60 -3 -2340 c-1 -1559 1 -2358 8 -2395 27 -148 147 -304 282 -368
95 -46 3830 -882 3938 -882 57 0 453 85 1978 425 1702 379 1915 429 1979 460
126 62 226 183 267 324 14 49 16 282 16 2400 0 1583 -4 2361 -11 2391 -19 81
-71 172 -139 241 -121 123 20 85 -2105 564 -1056 238 -1919 428 -1955 430 -36
2 -85 0 -110 -5z m-80 -2010 l0 -240 -990 0 -990 0 0 -560 0 -560 900 0 900 0
0 -240 0 -240 -900 0 -900 0 2 -577 3 -578 988 -3 987 -2 0 -240 0 -240 -1535
0 -1535 0 0 1860 0 1860 1535 0 1535 0 0 -240z m3501 -22 c-824 -1291 -1891
-2967 -1891 -2972 0 -3 428 -6 950 -6 l950 0 0 -240 0 -240 -1730 0 c-1073 0
-1730 4 -1730 9 0 6 464 733 1030 1616 567 883 1030 1608 1030 1611 0 2 -398
4 -885 4 l-885 0 0 240 0 240 1665 0 1664 0 -168 -262z"/>
<path d="M12550 3740 l0 -1920 374 0 375 0 4 788 c3 683 6 798 21 872 40 205
88 314 180 405 90 90 181 128 337 141 147 13 288 -33 365 -119 41 -45 85 -133
111 -222 16 -55 18 -135 21 -962 l3 -903 380 0 380 0 -3 988 c-4 902 -6 995
-22 1082 -69 360 -257 584 -576 684 -278 88 -639 71 -865 -42 -111 -54 -240
-167 -305 -264 -14 -22 -33 -38 -44 -38 -18 0 -18 6 -12 103 22 319 26 424 26
855 l0 472 -375 0 -375 0 0 -1920z"/>
<path d="M18655 5646 c-127 -34 -183 -74 -227 -163 -32 -65 -33 -73 -33 -183
0 -137 18 -202 74 -260 113 -119 382 -153 556 -72 129 61 175 133 183 288 11
213 -48 316 -218 377 -70 26 -261 33 -335 13z"/>
<path d="M10920 5470 c-391 -48 -690 -188 -941 -439 -264 -265 -421 -607 -485
-1056 -22 -148 -25 -538 -6 -700 29 -251 103 -523 191 -709 164 -343 449 -594
807 -712 172 -56 306 -76 557 -81 382 -9 678 36 968 148 l79 30 0 320 c0 175
-3 319 -6 319 -4 0 -63 -18 -133 -40 -355 -114 -646 -160 -884 -139 -134 11
-216 33 -325 85 -76 37 -107 59 -176 127 -195 194 -288 468 -303 902 -21 614
167 1060 520 1234 121 59 181 72 352 78 128 4 166 2 254 -17 119 -24 296 -86
469 -164 l120 -53 123 309 c76 191 119 312 113 317 -14 14 -165 78 -278 117
-120 42 -298 87 -426 109 -112 20 -477 28 -590 15z"/>
<path d="M16558 4630 c-271 -23 -549 -94 -769 -197 l-97 -45 120 -246 c66
-136 123 -250 127 -255 4 -4 52 11 106 33 272 111 454 153 655 154 115 0 145
-3 199 -23 175 -61 240 -163 249 -387 l4 -121 -38 -6 c-22 -4 -91 -7 -154 -7
-181 0 -485 -18 -609 -35 -501 -70 -789 -263 -883 -590 -21 -72 -23 -100 -22
-280 0 -174 3 -211 22 -280 81 -295 257 -466 567 -550 80 -22 361 -31 478 -16
266 36 463 141 629 336 35 40 68 74 74 74 6 1 43 -82 83 -184 l73 -185 264 0
264 0 0 963 c0 989 -3 1064 -41 1207 -91 342 -373 561 -801 624 -133 20 -364
27 -500 16z m592 -1682 c0 -93 -6 -179 -14 -219 -55 -258 -290 -420 -590 -407
-124 6 -204 37 -265 104 -81 86 -95 256 -33 388 89 191 254 259 666 275 111 4
209 9 219 9 15 2 17 -11 17 -150z"/>
<path d="M21070 4615 c-257 -42 -483 -167 -595 -329 -48 -70 -79 -76 -94 -18
-6 20 -28 98 -49 172 l-39 135 -291 3 -292 2 0 -1380 0 -1380 379 0 380 0 4
788 c3 690 6 797 21 872 69 345 188 492 433 535 253 45 429 -26 513 -208 67
-144 64 -90 68 -1084 l3 -903 379 0 380 0 0 893 c-1 932 -6 1092 -39 1244 -74
339 -281 546 -640 640 -121 31 -384 41 -521 18z"/>
<path d="M18420 3200 l0 -1380 380 0 380 0 0 1380 0 1380 -380 0 -380 0 0
-1380z"/>
</g>
</svg>
