<?xml version="1.0" standalone="no"?>
<!DOCTYPE svg PUBLIC "-//W3C//DTD SVG 20010904//EN"
 "http://www.w3.org/TR/2001/REC-SVG-20010904/DTD/svg10.dtd">
<svg version="1.0" xmlns="http://www.w3.org/2000/svg"
 width="528.000000pt" height="312.000000pt" viewBox="0 0 528.000000 312.000000"
 preserveAspectRatio="xMidYMid meet">

<g transform="translate(0.000000,312.000000) scale(0.100000,-0.100000)"
fill="#000000" stroke="none">
<path d="M3103 2512 l197 -197 -197 -198 -198 -197 395 0 395 0 198 198 197
197 -198 198 -197 197 -395 0 -395 0 198 -198z"/>
<path d="M4068 2517 c105 -106 192 -197 192 -202 0 -5 -87 -96 -192 -202
l-193 -193 390 0 390 0 200 200 200 200 -195 195 -195 195 -395 0 -395 0 193
-193z"/>
<path d="M1130 1800 c-224 -29 -410 -191 -476 -415 -13 -45 -18 -98 -18 -215
l-1 -155 188 -3 187 -2 0 132 c0 144 12 190 61 235 55 50 77 53 399 53 l300 0
-2 188 -3 187 -290 1 c-159 1 -315 -2 -345 -6z"/>
<path d="M2225 1793 c-161 -34 -320 -153 -389 -292 -53 -105 -61 -146 -61
-319 l0 -163 183 -2 182 -2 0 120 c0 136 9 181 47 226 55 65 74 69 411 69
l302 0 0 185 0 185 -327 -1 c-181 -1 -337 -3 -348 -6z"/>
<path d="M3315 1781 c-93 -26 -164 -69 -240 -146 -130 -129 -165 -228 -165
-465 l0 -155 182 2 183 2 5 144 c5 135 7 146 32 184 16 24 44 49 70 62 42 20
59 21 346 21 l302 0 0 185 0 185 -327 -1 c-279 0 -337 -3 -388 -18z"/>
<path d="M1130 1160 l0 -150 167 0 167 0 150 150 151 150 -317 0 -318 0 0
-150z"/>
<path d="M637 893 c-4 -3 -7 -156 -7 -340 l0 -333 190 0 190 0 0 340 0 340
-183 0 c-101 0 -187 -3 -190 -7z"/>
<path d="M1770 818 c1 -183 51 -310 170 -428 127 -127 245 -170 465 -170 l120
0 184 184 185 185 -305 3 -304 3 -45 27 c-66 38 -93 92 -98 195 l-5 83 -183 0
-184 0 0 -82z"/>
<path d="M2910 798 c0 -170 47 -292 155 -403 67 -69 126 -107 224 -143 56 -21
89 -26 215 -30 l148 -5 184 184 184 184 -302 5 c-340 6 -339 5 -402 83 -28 35
-31 46 -36 130 l-5 92 -182 3 -183 2 0 -102z"/>
</g>
</svg>
